<svg width="64px" height="64px" viewBox="0 0 64 64" xmlns="http://www.w3.org/2000/svg" xmlns:xlink="http://www.w3.org/1999/xlink" aria-hidden="true" role="img" class="iconify iconify--emojione" preserveAspectRatio="xMidYMid meet"><path d="M32.5 44.3c-13.2 0-24.2-4.1-26.7-9.5C10.4 48.9 7.6 62 32.5 62s22.1-13.1 26.7-27.2c-2.5 5.4-13.5 9.5-26.7 9.5" fill="#3e4347"></path><path d="M20.2 20.5c14.1-3.9 46.5 2 39.4 15.4c3.9 4.4 5.3 9.1-13.3 8.8C17.7 51.4-5.9 37.5 4.5 27c-2.5-5.1 3-7.7 15.7-6.5" fill="#6f7980"></path><path d="M32.5 43.7c12.5 0 22.9-3.9 25.3-9c.2-.5.3-1 .5-1.5c0-.3.1-.5.1-.8c0-6.2-11.6-11.2-25.8-11.2s-25.8 5-25.8 11.2c0 .3 0 .5.1.8c.1.5.3 1 .5 1.5c2.2 5.1 12.6 9 25.1 9" fill="#3e4347"></path><path d="M32.5 43.7c12.5 0 22.9-3.9 25.3-9c0-.2.1-.3.1-.5c-2.1-5.3-12.7-9.3-25.5-9.3S9 28.9 6.9 34.2c.1.2.1.3.1.5c2.6 5.1 13 9 25.5 9" fill="#fbbf67"></path><path d="M36 30.4c-5-.1-11.1 3.9-15.2 3.6c-6.8-.5.2 2.8 5 2.8c3.2 0 5.4-2.9 7.1-4.1c2.4-1.5 8.3-2.2 3.1-2.3" fill="#d33b23"></path><g fill="#ff8736"><path d="M21.2 27.1c-1.3-3.6-8.8 2.3-2.4 3.6c1 .2 3.5-.4 2.4-3.6"></path><path d="M35.7 38.4c-1.6-4.4-10.9 2.9-2.9 4.4c1.2.2 4.3-.5 2.9-4.4"></path><path d="M37.4 25.8c-1.5-3.6-10.8 2.3-2.9 3.6c1.1.1 4.2-.5 2.9-3.6"></path><path d="M52.7 29.7c-.6-3.9-12.5-1.7-4.3 2.4c1.2.6 4.8 1.1 4.3-2.4"></path></g><g fill="#89664c"><path d="M15.1 33.2c-1.1-1.5-2.7-3.5-3.3-2.5c-.9 1.4-1.2 4.2-.5 4.3c5 1 4.6-.6 3.8-1.8"></path><path d="M42.6 30.4c-1.8.8-2.9.2-3.7 1.4c-1.9 2.7 4.6 3.6 5.8 2c.9-1.1-.9-3.9-2.1-3.4"></path><path d="M44.1 37.1c-1.3-.6-1 1.4-3-.2c-1.4-1.1-4.4 1.7-2.4 3.6c2.2 2.1 2.8.1 3.7.3c1.9.3 5.2-2.2 1.7-3.7"></path><path d="M22.1 37.7c-1.2-1.2-3.1 2.2-2.4 3.1c1.5 2 6.9 1.6 8.3.1c1.8-1.8-3-.4-5.9-3.2"></path></g><g fill="#699635"><path d="M17.5 36.7s.1 1.2.3 1.7c-1.3-.5-1.3-2.8-1.3-2.8s-.9.5-.8 1.4c-1.4-1.2-2.6-.6-2.6-.6s1.8 1 2.1 1.7c-1 .1-1.6.4-2 1.2c0 0 2-1 3.5-.3c-.6.5-.3 1.7-.3 1.7c2.4-2.5 3.9-.3 5-.9c-.9-1.2-2.2-1.4-2.2-1.4c-.5-1-1.7-1.7-1.7-1.7"></path><path d="M28.3 26.9c-1.2-.2-2.4.4-2.4.4s1.1.5 1.6.7c-1.1.9-3.1-.3-3.1-.3s0 1 .8 1.4c-1.7.6-1.9 2-1.9 2s1.8-1 2.5-.9c-.5.9-.5 1.6.1 2.3c0 0 .2-2.2 1.6-3.1c.1.8 1.3 1.1 1.3 1.1c-.9-3.3 1.8-3.5 1.8-4.7c-1.4 0-2.3 1.1-2.3 1.1"></path><path d="M51.6 35.9c.5-.5 2.6-.8 2.6-.8s-.9-1-2.7-.5c.4-.8-.2-1.6-.2-1.6s-.9 2.1-2.3 2.1c.4-.5.9-1.5.9-1.5s-1.4.3-2.2 1.2c0 0-1.3-.4-2.5.4c.7 1 3-.5 4.2 2.7c0 0 .7-1 .4-1.7c1.6-.1 3.1 1.6 3.1 1.6c0-.9-.4-1.4-1.3-1.9"></path></g><g opacity=".6" fill="#a6aeb0"><path d="M33.3 11.4C29.6 7.6 32.1 2 32.1 2s-7.8 7.4-2.9 12.5c5.7 5.9 2.9 9.5 2.9 9.5s7-6.6 1.2-12.6"></path><path d="M22.3 14.8c-2.8-2.7-.9-6.8-.9-6.8s-5.8 5.4-2.1 9.1c4.3 4.3 2.1 6.9 2.1 6.9s5.2-4.8.9-9.2"></path><path d="M44.3 14.8c-2.8-2.7-.9-6.8-.9-6.8s-5.8 5.4-2.1 9.1c4.3 4.3 2.1 6.9 2.1 6.9s5.2-4.8.9-9.2"></path></g></svg>